:SAMPLES-PER-SECOND 30
:FRAME-RANGE 1-668
:FULLY-SPECIFIED
:DEGREES
564
root  -23.2291 39.9345 27.4813 -171.387 -55.6381 178.91
RightUpLeg  -8.0877 -4.39933 -3.34087
RightLeg  14.781 2.88881 0.651693
RightFoot  -10.2526 -0.106925 3.9261
RightToes  5.38607e-012 1.2921e-014 -6.02303e-014
Spine  -3.93197 2.78912 -0.199032
Spine1  12.4072 3.99554 -3.10988
HEad  28.0811 22.6378 3.31945
LeftShoulder1  0.535624 -0.472894 -6.75002
LeftArm  -41.2163 -10.2387 11.0133
LeftForeArm  8.84854 -47.7136 -11.6994
LeftHand  0.810794 -0.892963 -14.8921
RightShoulder  2.407 5.15295 22.2943
RightArm  -34.3645 4.36518 22.0621
RightForeArm  74.9331 12.2275 2.20563
RightHand  0.80278 -9.66326 -21.9461
LeftUpLeg  -16.7042 -5.01098 7.05741
LeftLeg  22.6 -4.68608 -1.80886
LeftFoot  -2.80496 0.911117 -11.9502
LeftToes  -6.11857e-011 5.00151e-011 -2.22593e-011
565
root  -23.1408 39.8696 27.3891 -171.932 -57.5659 179.689
RightUpLeg  -7.68063 -5.62252 -2.60648
RightLeg  14.3303 2.1784 0.760872
RightFoot  -10.673 -0.0934199 3.5973
RightToes  5.38607e-012 1.2921e-014 -6.02303e-014
Spine  -4.41262 1.10695 -3.79042
Spine1  12.0817 1.25827 0.743453
HEad  29.037 25.24 3.58166
LeftShoulder1  0.580047 -1.15459 -5.4342
LeftArm  -43.8421 -4.7027 10.92
LeftForeArm  9.74335 -46.1385 -10.9788
LeftHand  0.564306 0.277202 -12.9179
RightShoulder  2.19973 3.75919 25.106
RightArm  -34.6138 8.36285 22.576
RightForeArm  75.4202 10.0652 1.82873
RightHand  1.0793 -10.2282 -25.6642
LeftUpLeg  -16.4937 -6.72113 7.91305
LeftLeg  21.3327 -4.6753 -1.68291
LeftFoot  -3.80876 0.77091 -11.3368
LeftToes  -6.11857e-011 5.00151e-011 -2.22593e-011
566
root  -23.0626 39.8146 27.3487 -172.709 -58.3645 -179.268
RightUpLeg  -7.28698 -5.76447 -1.88671
RightLeg  13.4696 1.4546 0.811739
RightFoot  -10.8584 -0.0871379 3.19525
RightToes  5.38607e-012 1.2921e-014 -6.02303e-014
Spine  -4.67338 0.0459887 -6.31041
Spine1  11.8375 -0.591577 3.67763
HEad  30.048 27.7189 3.14304
LeftShoulder1  0.607866 -1.91061 -3.90955
LeftArm  -44.0887 0.0626014 10.2626
LeftForeArm  16.0411 -43.9432 -9.69816
LeftHand  0.194946 2.69256 -9.28052
RightShoulder  2.07829 2.92219 27.4213
RightArm  -35.5961 11.1626 22.5304
RightForeArm  77.5243 7.86912 0.853679
RightHand  1.30626 -10.6276 -28.4212
LeftUpLeg  -15.9558 -7.88701 8.66908
LeftLeg  19.8297 -3.97071 -1.25964
LeftFoot  -4.81188 0.641319 -10.7151
LeftToes  -6.11857e-011 5.00151e-011 -2.22593e-011
567
root  -23.0198 39.7663 27.3556 -172.964 -58.6022 -178.636
RightUpLeg  -7.24166 -5.72527 -1.50169
RightLeg  12.7557 0.993144 0.919509
RightFoot  -11.0181 -0.0828584 2.87979
RightToes  5.38607e-012 1.2921e-014 -6.02303e-014
Spine  -5.18363 -0.667506 -8.11206
Spine1  11.8885 -1.92091 6.05775
HEad  31.1929 29.9114 2.45841
LeftShoulder1  0.57637 -2.00172 -3.01125
LeftArm  -41.3094 2.56526 9.59571
LeftForeArm  23.0738 -40.5302 -8.08251
LeftHand  -0.0368667 5.44335 -4.67171
RightShoulder  1.9009 2.18863 28.67
RightArm  -36.469 13.0618 22.5935
RightForeArm  78.0032 5.75932 -0.0514843
RightHand  1.43819 -10.6385 -30.9869
LeftUpLeg  -15.5332 -9.13749 9.10111
LeftLeg  18.3537 -2.75535 -0.693695
LeftFoot  -5.63659 0.547297 -10.2874
LeftToes  -6.11857e-011 5.00151e-011 -2.22593e-011
568
root  -22.9908 39.7337 27.4293 -173.732 -58.3511 -177.476
RightUpLeg  -7.35924 -5.33708 -0.95443
RightLeg  12.2503 0.779198 1.05703
RightFoot  -10.8618 -0.085337 2.78629
RightToes  5.38607e-012 1.2921e-014 -6.02303e-014
Spine  -5.34212 -0.942699 -7.86906
Spine1  11.6488 -2.39223 6.70996
HEad  31.8212 31.7633 1.79253
LeftShoulder1  0.49592 -1.38348 -2.68826
LeftArm  -36.1475 2.42108 8.96231
LeftForeArm  30.4255 -36.5617 -6.47687
LeftHand  -0.0341434 8.2297 0.415098
RightShoulder  1.77777 1.77054 29.0929
RightArm  -37.0955 13.5583 22.7861
RightForeArm  77.2332 3.92196 -0.791525
RightHand  1.46148 -10.4686 -32.4112
LeftUpLeg  -14.7872 -8.80675 9.53003
LeftLeg  16.6221 -2.52937 -0.341592
LeftFoot  -6.49741 0.433238 -9.30914
LeftToes  -6.11857e-011 5.00151e-011 -2.22593e-011
569
root  -22.9859 39.7383 27.5514 -174.514 -57.6297 -176.55
RightUpLeg  -7.13208 -5.1049 -0.710178
RightLeg  11.403 1.24404 1.33504
RightFoot  -10.3961 -0.09302 2.72629
RightToes  5.38607e-012 1.2921e-014 -6.02303e-014
Spine  -5.34242 -0.844978 -6.22586
Spine1  11.5868 -2.08552 5.63373
HEad  32.2563 32.942 1.37706
LeftShoulder1  0.415898 -0.587336 -2.80829
LeftArm  -30.6543 0.425326 8.4511
LeftForeArm  34.703 -30.5608 -4.74534
LeftHand  0.119984 9.63483 4.49206
RightShoulder  1.72365 1.68454 28.594
RightArm  -38.5925 13.0684 23.3911
RightForeArm  77.0644 1.84684 -2.12197
RightHand  1.46635 -10.2835 -33.6325
LeftUpLeg  -13.5201 -6.65187 9.31201
LeftLeg  14.5927 -3.67778 0.175339
LeftFoot  -7.00884 0.36119 -8.42924
LeftToes  -6.11857e-011 5.00151e-011 -2.22593e-011
570
root  -22.9791 39.7714 27.6959 -174.37 -56.4464 -176.647
RightUpLeg  -7.09973 -4.63395 -0.917585
RightLeg  10.6427 1.91519 1.30123
RightFoot  -9.97202 -0.0990158 2.80858
RightToes  5.38607e-012 1.2921e-014 -6.02303e-014
Spine  -5.37904 -0.505966 -4.59738
Spine1  11.542 -1.31962 3.87361
HEad  33.1091 33.7237 1.39621
LeftShoulder1  0.350283 0.18808 -3.43269
LeftArm  -28.3176 -1.1851 7.96661
LeftForeArm  33.3355 -25.5563 -3.71726
LeftHand  0.186992 9.4513 6.4796
RightShoulder  1.75536 1.89872 27.7612
RightArm  -38.5503 12.3573 23.477
RightForeArm  74.8058 -1.10195 -2.83105
RightHand  1.4146 -9.89707 -35.0826
LeftUpLeg  -12.2546 -3.55492 8.39354
LeftLeg  12.4352 -5.39968 0.762954
LeftFoot  -6.93312 0.331843 -7.53633
LeftToes  -6.11857e-011 5.00151e-011 -2.22593e-011
571
root  -22.9837 39.8133 27.8585 -173.778 -55.1828 -176.968
RightUpLeg  -7.38432 -4.19526 -1.24661
RightLeg  9.8759 2.68737 1.19712
RightFoot  -9.52256 -0.120748 3.2096
RightToes  5.38607e-012 1.2921e-014 -6.02303e-014
Spine  -5.57366 -0.12658 -2.73975
Spine1  11.3866 -0.393761 1.66882
HEad  34.1461 34.0117 1.8759
LeftShoulder1  0.289193 0.877619 -4.19521
LeftArm  -28.0294 -1.94221 7.38875
LeftForeArm  29.5247 -21.8651 -3.38898
LeftHand  0.230951 8.89331 8.75582
RightShoulder  1.74059 2.08725 26.2539
RightArm  -37.5534 11.4519 23.7882
RightForeArm  73.0864 -4.05988 -3.06967
RightHand  1.40541 -9.77858 -35.7278
LeftUpLeg  -11.2393 -0.637444 7.40319
LeftLeg  10.0701 -6.71715 1.3937
LeftFoot  -6.61013 0.315948 -6.6849
LeftToes  -6.11857e-011 5.00151e-011 -2.22593e-011
572
root  -22.9859 39.8661 28.0146 -173.147 -53.8784 -177.335
RightUpLeg  -7.66059 -4.02697 -1.65735
RightLeg  9.05486 3.77706 1.2081
RightFoot  -8.96072 -0.127241 3.39504
RightToes  5.38607e-012 1.2921e-014 -6.02303e-014
Spine  -5.71078 0.170178 -1.03223
Spine1  11.26 0.472642 -0.728074
HEad  34.8243 34.2388 2.14502
LeftShoulder1  0.23581 1.47321 -5.27738
LeftArm  -29.4656 -2.10652 7.21548
LeftForeArm  29.423 -19.2168 -3.4057
LeftHand  0.298551 8.84702 10.9949
RightShoulder  1.69703 2.28747 24.2264
RightArm  -36.2248 10.9028 24.1174
RightForeArm  71.9182 -4.1913 -2.58249
RightHand  1.40884 -9.7727 -35.8501
LeftUpLeg  -10.54 1.49322 6.65608
LeftLeg  8.21275 -7.52365 1.81745
LeftFoot  -6.06385 0.336993 -6.51959
LeftToes  -6.11857e-011 5.00151e-011 -2.22593e-011
573
root  -22.9802 39.8869 28.1738 -172.627 -52.7908 -177.753
RightUpLeg  -8.11099 -3.80736 -2.04896
RightLeg  8.92651 4.62384 1.07749
RightFoot  -8.71141 -0.144477 3.71437
RightToes  5.38607e-012 1.2921e-014 -6.02303e-014
Spine  -5.5409 0.338141 -0.0181846
Spine1  10.9613 1.01603 -2.32862
HEad  35.353 34.3836 2.03286
LeftShoulder1  0.168278 2.10027 -6.51199
LeftArm  -31.3671 -1.81171 7.06024
LeftForeArm  31.073 -17.3333 -3.23953
LeftHand  0.236484 7.73384 12.8216
RightShoulder  1.63055 2.36162 22.5614
RightArm  -33.9747 10.872 23.6312
RightForeArm  70.1776 -4.4656 -1.39319
RightHand  1.3712 -9.69272 -35.5708
LeftUpLeg  -10.233 2.6281 6.19012
LeftLeg  7.3281 -7.59587 1.7457
LeftFoot  -5.70513 0.342872 -6.26732
LeftToes  -6.11857e-011 5.00151e-011 -2.22593e-011
574
root  -22.9734 39.895 28.3317 -172.144 -52.3633 -178.146
RightUpLeg  -8.64596 -3.59056 -2.39149
RightLeg  9.15977 4.78644 0.873103
RightFoot  -8.57236 -0.149722 3.78347
RightToes  5.38607e-012 1.2921e-014 -6.02303e-014
Spine  -5.40556 0.215195 0.515991
Spine1  10.8058 1.08325 -3.15712
HEad  35.9603 33.9225 1.8058
LeftShoulder1  0.128313 2.43908 -7.47144
LeftArm  -31.6444 -0.414707 6.70315
LeftForeArm  30.549 -17.217 -3.16696
LeftHand  0.270048 7.79982 13.9963
RightShoulder  1.56963 2.42186 21.1013
RightArm  -32.3449 11.1636 22.9734
RightForeArm  69.5181 -4.65047 -0.466968
RightHand  1.35885 -9.73934 -34.9384
LeftUpLeg  -10.3731 2.7234 5.76193
LeftLeg  7.08261 -7.26025 1.70192
LeftFoot  -5.47921 0.34679 -6.12845
LeftToes  -6.11857e-011 5.00151e-011 -2.22593e-011
575
root  -22.9693 39.8917 28.4757 -171.984 -52.4872 -178.277
RightUpLeg  -8.94247 -3.4012 -2.56966
RightLeg  9.34747 4.5105 0.675985
RightFoot  -8.53674 -0.15857 4.10583
RightToes  5.38607e-012 1.2921e-014 -6.02303e-014
Spine  -5.28287 -0.0414465 0.828478
Spine1  10.6949 0.867572 -3.41811
HEad  36.4457 32.9587 1.36714
LeftShoulder1  0.0925625 2.71358 -8.41566
LeftArm  -31.7121 0.663082 6.25295
LeftForeArm  30.8555 -17.4987 -3.12704
LeftHand  0.278119 7.76491 14.5447
RightShoulder  1.48295 2.28588 20.1445
RightArm  -31.5046 11.3602 21.9872
RightForeArm  68.8302 -4.77075 0.0811262
RightHand  1.36865 -9.87436 -34.2046
LeftUpLeg  -10.7683 2.23182 5.47692
LeftLeg  7.41061 -6.90109 1.78328
LeftFoot  -5.47321 0.337225 -5.93656
LeftToes  -6.11857e-011 5.00151e-011 -2.22593e-011
576
root  -22.9771 39.8688 28.5945 -172.023 -52.981 -178.353
RightUpLeg  -9.03013 -3.65749 -2.78068
RightLeg  9.69614 4.29181 0.711353
RightFoot  -8.69236 -0.157904 4.27246
RightToes  5.38607e-012 1.2921e-014 -6.02303e-014
Spine  -5.17569 -0.373496 0.939734
Spine1  10.5826 0.500469 -3.37472
HEad  37.0189 31.2698 1.27936
LeftShoulder1  0.0811533 2.8096 -9.23998
LeftArm  -30.5507 1.35847 5.7552
LeftForeArm  30.4656 -17.716 -3.23879
LeftHand  0.249537 7.47284 14.9199
RightShoulder  1.40897 2.12496 19.5152
RightArm  -31.4185 11.0564 20.9396
RightForeArm  67.2478 -4.85414 0.218055
RightHand  1.34752 -9.90188 -33.5372
LeftUpLeg  -11.2405 1.29184 5.28536
LeftLeg  8.18747 -6.49526 1.85389
LeftFoot  -5.6886 0.325509 -5.89985
LeftToes  -6.11857e-011 5.00151e-011 -2.22593e-011
